<svg width="32" height="32" viewBox="0 0 32 32" fill="none" xmlns="http://www.w3.org/2000/svg">
  <rect width="32" height="32" rx="8" fill="url(#gradient)" />
  <path d="M23 21.5L25 23.5L23 21.5ZM16 24C12.6863 24 10 21.3137 10 18C10 14.6863 12.6863 12 16 12C19.3137 12 22 14.6863 22 18C22 19.5367 21.3891 20.9385 20.3753 22C19.9815 22.4172 20.0166 22.4421 20.5 23C21.0009 23.5791 21.8382 24.4379 22.5 25C22.6615 25.1337 22.4379 25.3613 22.3046 25.1998C21.6429 24.4379 20.8056 23.5791 20.3046 23C19.8037 22.4209 19.7815 22.4172 19.3753 22C18.3891 20.9385 16.5367 20 15 20" 
    stroke="white" 
    strokeWidth="2.5" 
    strokeLinecap="round"
    fill="none"
  />
  <defs>
    <linearGradient id="gradient" x1="0" y1="0" x2="32" y2="32" gradientUnits="userSpaceOnUse">
      <stop offset="0%" stopColor="#2563EB"/>
      <stop offset="100%" stopColor="#1E40AF"/>
    </linearGradient>
  </defs>
</svg> 