<svg width="32" height="32" viewBox="0 0 32 32" fill="none" xmlns="http://www.w3.org/2000/svg">
  <rect width="32" height="32" rx="4" fill="white"/>
  <path d="M7 25V7H20.5C23.5 7 25.75 7.75 27.25 9.25C28.75 10.75 29.5 12.75 29.5 15.25C29.5 17.75 28.75 19.75 27.25 21.25C25.75 22.75 23.5 23.5 20.5 23.5H11V25H7Z" fill="#2563EB"/>
  <path d="M11 19.5H20.5C21.833 19.5 22.917 19.083 23.75 18.25C24.583 17.417 25 16.417 25 15.25C25 14.083 24.583 13.083 23.75 12.25C22.917 11.417 21.833 11 20.5 11H11V19.5Z" fill="#2563EB"/>
  <path d="M7 25V7H20.5C23.5 7 25.75 7.75 27.25 9.25C28.75 10.75 29.5 12.75 29.5 15.25C29.5 17.75 28.75 19.75 27.25 21.25C25.75 22.75 23.5 23.5 20.5 23.5H11V25H7Z" stroke="black" stroke-width="1"/>
  <path d="M11 19.5H20.5C21.833 19.5 22.917 19.083 23.75 18.25C24.583 17.417 25 16.417 25 15.25C25 14.083 24.583 13.083 23.75 12.25C22.917 11.417 21.833 11 20.5 11H11V19.5Z" stroke="black" stroke-width="1"/>
</svg> 